<svg width="16" height="21" viewBox="0 0 16 21" fill="none" xmlns="http://www.w3.org/2000/svg">
<rect x="0.4" y="0.4" width="15.2" height="20.2" rx="7.6" stroke="black" stroke-width="0.8"/>
<path d="M8.25812 6.41604V9.85889C8.25812 10.471 8.26978 10.9139 8.29309 11.1877C8.30086 11.2763 8.3164 11.4454 8.33972 11.6951C8.38634 12.0011 8.534 12.2709 8.78268 12.5044H8.68942C8.58063 12.5044 8.40189 12.5004 8.15321 12.4924C7.90452 12.4763 7.74133 12.4682 7.66361 12.4682C7.62476 12.4682 7.48487 12.4763 7.24396 12.4924C7.00305 12.5004 6.82043 12.5044 6.69609 12.5044H6.60283C6.84374 12.2065 6.98362 11.7676 7.02248 11.1877C7.0458 10.9139 7.05745 10.471 7.05745 9.85889V6.64556C7.05745 6.0335 7.0458 5.59056 7.02248 5.31674C6.98362 4.73689 6.84374 4.29798 6.60283 4H6.69609C6.82043 4 7.00305 4.00805 7.24396 4.02416C7.48487 4.03221 7.62476 4.03624 7.66361 4.03624C7.92007 4.03624 8.17652 4.03221 8.43297 4.02416C8.68943 4.01611 9.00416 4.01208 9.37719 4.01208C10.1699 4.01208 10.8032 4.22147 11.2773 4.64025C11.7591 5.05098 12 5.60264 12 6.29523C12 6.97978 11.7746 7.53949 11.3239 7.97438C10.8654 8.40121 10.2748 8.61463 9.55204 8.61463C9.12462 8.61463 8.77491 8.50591 8.50291 8.28846C9.24119 8.28846 9.79684 8.11934 10.1699 7.7811C10.5507 7.44285 10.741 6.95562 10.741 6.31939C10.741 5.76371 10.5856 5.33285 10.2748 5.02682C9.96392 4.72078 9.52873 4.56777 8.96919 4.56777C8.70497 4.56777 8.53011 4.60804 8.44463 4.68857C8.35914 4.76105 8.30863 4.92212 8.29309 5.17178C8.26978 5.42949 8.25812 5.84424 8.25812 6.41604Z" fill="black"/>
<path d="M10.1082 8.35059C10.1937 8.35059 10.3258 8.34656 10.5046 8.33851C10.6911 8.3224 10.796 8.31435 10.8193 8.31435H10.9126C10.6717 8.61233 10.5318 9.05124 10.4929 9.63109C10.4696 9.90491 10.458 10.3478 10.458 10.9599V13.7504C10.458 14.6927 10.1782 15.4739 9.61865 16.094C9.05912 16.698 8.32473 17 7.41549 17C6.4907 17 5.76409 16.7302 5.23564 16.1906C4.71496 15.651 4.45462 14.898 4.45462 13.9316V10.9599C4.45462 10.3478 4.44296 9.90491 4.41965 9.63109C4.38079 9.05124 4.24091 8.61233 4 8.31435H4.09326C4.2176 8.31435 4.40022 8.3224 4.64113 8.33851C4.88204 8.34656 5.02193 8.35059 5.06078 8.35059C5.09964 8.35059 5.23564 8.34656 5.46878 8.33851C5.70969 8.3224 5.89231 8.31435 6.01665 8.31435H6.12157C5.84957 8.6687 5.70191 9.10762 5.6786 9.63109C5.66306 10.3559 5.65529 10.7988 5.65529 10.9599V13.9316C5.65529 14.6403 5.83014 15.196 6.17985 15.5987C6.52956 15.9933 7.00749 16.1906 7.61366 16.1906C8.28199 16.1906 8.80655 15.9692 9.18734 15.5262C9.57591 15.0752 9.77019 14.4511 9.77019 13.6538V10.9599C9.77019 10.3478 9.75853 9.90491 9.73522 9.63109C9.69636 9.05124 9.55648 8.61233 9.31557 8.31435H9.40883C9.43214 8.31435 9.53317 8.3224 9.71191 8.33851C9.89842 8.34656 10.0305 8.35059 10.1082 8.35059Z" fill="black"/>
</svg>
